# xmcd CD database file
#
# Track frame offsets:
#	150
#	21697
#	43155
#	59792
#	78412
#	94620
#	116490
#	131047
#	153935
#	166152
#
# Disc length: 2444 seconds
#
# Revision: 11
# Processed by: cddbd v1.5.1PL0 Copyright (c) Steve Scherf et al.
# Submitted via: CDex 1.51
#
DISCID=85098a0a
DTITLE=SINGER SONGER - ???????
DYEAR=2005
DGENRE=Jazz
TTITLE0=SING A SONG
TTITLE1=?????????
TTITLE2=??????
TTITLE3=????
TTITLE4=Home
TTITLE5=Millions of Kiss
TTITLE6=Come on you
TTITLE7=????
TTITLE8=Baby,tonight
TTITLE9=????
EXTD=YEAR: 2005
EXTT0=
EXTT1=
EXTT2=
EXTT3=
EXTT4=
EXTT5=
EXTT6=
EXTT7=
EXTT8=
EXTT9=
PLAYORDER=
